<svg width="57" height="16" viewBox="0 0 57 16" fill="none" xmlns="http://www.w3.org/2000/svg">
<g clip-path="url(#clip0_2_215)">
<path fill-rule="evenodd" clip-rule="evenodd" d="M5 6.44452C4.03804 6.44452 3.25973 5.70036 3.25973 4.78061C3.25973 3.86295 4.03804 3.11879 5 3.11879C5.95977 3.11879 6.73809 3.86295 6.73809 4.78061C6.73809 5.70036 5.95977 6.44452 5 6.44452ZM5 0C2.23874 0 0 2.14051 0 4.78061C0 6.70791 2.6585 12.471 4.09926 15.4497C4.45343 16.1834 5.54438 16.1834 5.90074 15.4497C7.33931 12.471 10 6.70791 10 4.78061C10 2.14051 7.76126 0 5 0Z" fill="white"/>
</g>
<path d="M20.1359 0.635986V6.81599C20.1359 7.50399 19.9239 8.05599 19.4999 8.47199C19.0759 8.87999 18.5159 9.08399 17.8199 9.08399C17.1159 9.08399 16.5519 8.87599 16.1279 8.45999C15.7039 8.03599 15.4919 7.45999 15.4919 6.73199H16.5839C16.5919 7.13999 16.6959 7.47199 16.8959 7.72799C17.1039 7.98399 17.4119 8.11199 17.8199 8.11199C18.2279 8.11199 18.5319 7.99199 18.7319 7.75199C18.9319 7.50399 19.0319 7.19199 19.0319 6.81599V0.635986H20.1359Z" fill="white"/>
<path d="M21.8792 5.68799C21.8792 5.01599 22.0152 4.42799 22.2872 3.92399C22.5592 3.41199 22.9312 3.01599 23.4032 2.73599C23.8832 2.45599 24.4152 2.31599 24.9992 2.31599C25.5752 2.31599 26.0752 2.43999 26.4992 2.68799C26.9232 2.93599 27.2392 3.24799 27.4472 3.62399V2.42399H28.5512V8.99999H27.4472V7.77599C27.2312 8.15999 26.9072 8.47999 26.4752 8.73599C26.0512 8.98399 25.5552 9.10799 24.9872 9.10799C24.4032 9.10799 23.8752 8.96399 23.4032 8.67599C22.9312 8.38799 22.5592 7.98399 22.2872 7.46399C22.0152 6.94399 21.8792 6.35199 21.8792 5.68799ZM27.4472 5.69999C27.4472 5.20399 27.3472 4.77199 27.1472 4.40399C26.9472 4.03599 26.6752 3.75599 26.3312 3.56399C25.9952 3.36399 25.6232 3.26399 25.2152 3.26399C24.8072 3.26399 24.4352 3.35999 24.0992 3.55199C23.7632 3.74399 23.4952 4.02399 23.2952 4.39199C23.0952 4.75999 22.9952 5.19199 22.9952 5.68799C22.9952 6.19199 23.0952 6.63199 23.2952 7.00799C23.4952 7.37599 23.7632 7.65999 24.0992 7.85999C24.4352 8.05199 24.8072 8.14799 25.2152 8.14799C25.6232 8.14799 25.9952 8.05199 26.3312 7.85999C26.6752 7.65999 26.9472 7.37599 27.1472 7.00799C27.3472 6.63199 27.4472 6.19599 27.4472 5.69999Z" fill="white"/>
<path d="M31.4886 3.63599C31.7046 3.25999 32.0246 2.94799 32.4486 2.69999C32.8806 2.44399 33.3806 2.31599 33.9486 2.31599C34.5326 2.31599 35.0606 2.45599 35.5326 2.73599C36.0126 3.01599 36.3886 3.41199 36.6606 3.92399C36.9326 4.42799 37.0686 5.01599 37.0686 5.68799C37.0686 6.35199 36.9326 6.94399 36.6606 7.46399C36.3886 7.98399 36.0126 8.38799 35.5326 8.67599C35.0606 8.96399 34.5326 9.10799 33.9486 9.10799C33.3886 9.10799 32.8926 8.98399 32.4606 8.73599C32.0366 8.47999 31.7126 8.16399 31.4886 7.78799V12.12H30.3966V2.42399H31.4886V3.63599ZM35.9526 5.68799C35.9526 5.19199 35.8526 4.75999 35.6526 4.39199C35.4526 4.02399 35.1806 3.74399 34.8366 3.55199C34.5006 3.35999 34.1286 3.26399 33.7206 3.26399C33.3206 3.26399 32.9486 3.36399 32.6046 3.56399C32.2686 3.75599 31.9966 4.03999 31.7886 4.41599C31.5886 4.78399 31.4886 5.21199 31.4886 5.69999C31.4886 6.19599 31.5886 6.63199 31.7886 7.00799C31.9966 7.37599 32.2686 7.65999 32.6046 7.85999C32.9486 8.05199 33.3206 8.14799 33.7206 8.14799C34.1286 8.14799 34.5006 8.05199 34.8366 7.85999C35.1806 7.65999 35.4526 7.37599 35.6526 7.00799C35.8526 6.63199 35.9526 6.19199 35.9526 5.68799Z" fill="white"/>
<path d="M38.098 5.68799C38.098 5.01599 38.234 4.42799 38.506 3.92399C38.778 3.41199 39.15 3.01599 39.622 2.73599C40.102 2.45599 40.634 2.31599 41.218 2.31599C41.794 2.31599 42.294 2.43999 42.718 2.68799C43.142 2.93599 43.458 3.24799 43.666 3.62399V2.42399H44.77V8.99999H43.666V7.77599C43.45 8.15999 43.126 8.47999 42.694 8.73599C42.27 8.98399 41.774 9.10799 41.206 9.10799C40.622 9.10799 40.094 8.96399 39.622 8.67599C39.15 8.38799 38.778 7.98399 38.506 7.46399C38.234 6.94399 38.098 6.35199 38.098 5.68799ZM43.666 5.69999C43.666 5.20399 43.566 4.77199 43.366 4.40399C43.166 4.03599 42.894 3.75599 42.55 3.56399C42.214 3.36399 41.842 3.26399 41.434 3.26399C41.026 3.26399 40.654 3.35999 40.318 3.55199C39.982 3.74399 39.714 4.02399 39.514 4.39199C39.314 4.75999 39.214 5.19199 39.214 5.68799C39.214 6.19199 39.314 6.63199 39.514 7.00799C39.714 7.37599 39.982 7.65999 40.318 7.85999C40.654 8.05199 41.026 8.14799 41.434 8.14799C41.842 8.14799 42.214 8.05199 42.55 7.85999C42.894 7.65999 43.166 7.37599 43.366 7.00799C43.566 6.63199 43.666 6.19599 43.666 5.69999Z" fill="white"/>
<path d="M49.8193 2.30399C50.6193 2.30399 51.2673 2.54799 51.7633 3.03599C52.2593 3.51599 52.5074 4.21199 52.5074 5.12399V8.99999H51.4273V5.27999C51.4273 4.62399 51.2633 4.12399 50.9353 3.77999C50.6073 3.42799 50.1594 3.25199 49.5914 3.25199C49.0154 3.25199 48.5553 3.43199 48.2113 3.79199C47.8753 4.15199 47.7073 4.67599 47.7073 5.36399V8.99999H46.6153V2.42399H47.7073V3.35999C47.9233 3.02399 48.2153 2.76399 48.5833 2.57999C48.9593 2.39599 49.3713 2.30399 49.8193 2.30399Z" fill="white"/>
<defs>
<clipPath id="clip0_2_215">
<rect width="10" height="16" fill="white"/>
</clipPath>
</defs>
</svg>
